<svg width="876" height="897" viewBox="0 0 876 897" fill="none" xmlns="http://www.w3.org/2000/svg">
<path d="M355.432 878.755L347.722 866.365L346.182 873.445C345.912 874.685 345.642 875.945 345.392 877.195C343.202 875.325 340.872 873.595 338.593 871.935C331.593 866.855 324.596 861.769 317.602 856.675L319.792 869.375C321.142 877.195 322.552 885.175 325.892 892.325C326.262 893.135 326.662 893.935 327.093 894.715H359.633C359.894 893.991 360.075 893.24 360.172 892.475C360.181 892.426 360.184 892.376 360.182 892.325C360.693 887.475 358.012 882.905 355.432 878.755Z" fill="#F0F0F0"/>
<path d="M393.293 895.933L77.9356 896.24C77.6208 896.239 77.3195 896.113 77.0975 895.89C76.8755 895.666 76.7509 895.364 76.7509 895.05C76.7509 894.735 76.8755 894.433 77.0975 894.21C77.3195 893.987 77.6208 893.861 77.9356 893.859L393.293 893.552C393.608 893.553 393.909 893.68 394.131 893.903C394.353 894.126 394.478 894.428 394.478 894.742C394.478 895.057 394.353 895.359 394.131 895.582C393.909 895.805 393.608 895.932 393.293 895.933Z" fill="#CACACA"/>
<path d="M690.286 756.18C678.314 751.343 665.387 745.558 651.507 738.825C579.714 703.992 491.135 647.946 402.087 581.011C313.039 514.077 234.161 444.25 179.982 384.395C153.591 355.237 134.486 330.012 123.199 309.418C111.249 287.617 108.582 271.744 115.27 262.242C128.301 243.731 172.372 256.335 207.048 270.169L205.859 273.146C158.239 254.149 126.923 250.92 117.679 264.053C105.904 280.779 129.43 323.824 182.225 382.152C236.284 441.875 315.018 511.571 403.926 578.4C492.833 645.228 581.247 701.173 652.882 735.93C722.839 769.874 769.717 779.749 781.492 763.022C791.268 749.135 776.789 717.008 740.722 672.559L741.5 669.081C767.707 701.378 797.631 745.327 783.9 764.833C777.211 774.334 761.776 776.599 738.023 771.564C724.483 768.693 708.509 763.543 690.286 756.18Z" fill="#E363FF"/>
<path d="M211.052 271.693C222.968 276.508 235.832 282.268 249.646 288.974C321.091 323.668 409.217 379.536 497.793 446.286C586.369 513.037 664.811 582.696 718.669 642.43C744.905 671.529 763.89 696.71 775.096 717.274C786.961 739.045 789.59 754.905 782.912 764.414C769.902 782.939 726.03 770.416 691.517 756.649L692.706 753.671C740.102 772.577 771.287 775.751 780.517 762.609C792.273 745.87 768.915 702.886 716.432 644.676C662.692 585.073 584.393 515.545 495.958 448.9C407.522 382.255 319.559 326.488 248.271 291.87C178.653 258.062 131.98 248.272 120.224 265.011C110.463 278.909 124.829 310.995 160.675 355.362L158.336 357.488C132.29 325.25 104.119 282.725 117.828 263.205C124.507 253.697 139.884 251.406 163.533 256.399C177.013 259.245 192.915 264.366 211.052 271.693Z" fill="#E363FF"/>
<g filter="url(#filter0_i_1_141)">
<g filter="url(#filter1_d_1_141)">
<path d="M706.416 502.058C706.348 537.063 693.187 570.777 669.521 596.571C645.855 622.365 613.397 638.373 578.526 641.448C543.656 644.524 508.897 634.444 481.082 613.19C453.266 591.936 434.408 561.046 428.213 526.593C422.019 492.14 428.937 456.616 447.606 427.004C466.276 397.393 495.347 375.837 529.105 366.573C562.863 357.309 598.865 361.009 630.033 376.944C661.201 392.879 685.282 419.896 697.54 452.686C697.845 453.509 698.143 454.332 698.434 455.164V455.172C699.728 458.826 700.867 462.548 701.853 466.338C704.893 478.001 706.426 490.005 706.416 502.058Z" fill="#3F3D56"/>
</g>
<path d="M549.82 406.824C543.477 403.393 536.434 401.457 529.229 401.162C522.023 400.867 514.846 402.222 508.243 405.123C502.43 407.653 496.309 412.191 494.37 420.386C502.213 415.758 512.366 423.071 514.384 434.803L513.913 434.933C512.847 443.06 515.227 451.907 519.834 456.946C520.176 454.672 521.021 452.504 522.306 450.597C523.592 448.691 525.286 447.095 527.265 445.925C530.65 443.699 534.395 442.083 536.978 438.258C540.041 433.724 540.819 427.097 542.036 421.051C543.253 415.006 545.561 408.508 549.82 406.824Z" fill="#E363FF"/>
<path d="M507.454 476.876C505.282 480.138 502.38 482.185 499.777 484.734C496.771 487.468 494.799 491.154 494.193 495.171C493.864 498.01 494.374 500.896 494.303 503.766C494.233 506.636 493.276 509.867 491.323 510.58C488.241 511.694 485.889 505.969 482.721 505.569C480.203 505.256 477.937 509.216 478.667 512.651C479.396 516.085 482.823 517.607 484.791 515.364C486.571 518.352 485.316 523.77 482.642 524.688C482.36 526.57 482.078 528.444 481.803 530.326C475.043 525.597 468.213 520.79 462.465 513.866C456.072 506.23 452.107 496.858 451.079 486.953C450.334 478.993 451.44 469.889 447.785 463.765C444.86 458.864 439.842 457.781 435.325 458.087C434.501 458.142 433.67 458.236 432.847 458.338C435.51 450.338 439.092 442.052 443.153 434.662C443.153 434.662 444.5 432 445 431.5C449.203 427.932 451.557 422.838 454.968 417.843C455.188 417.521 455.415 417.208 455.651 416.902C459.14 412.346 463.814 410.001 468.331 407.821C478.329 402.967 488.618 398.05 499.173 398.724L496.169 399.015C492.664 408.833 489.156 418.651 485.645 428.469C485.112 429.974 484.574 431.482 484.03 432.993C482.038 438.577 479.984 444.521 480.29 450.771C480.47 454.472 481.756 458.424 484.203 459.695C486.485 460.871 488.978 459.428 491.182 458.001C492.115 457.405 493.04 456.809 493.973 456.205C497.322 454.048 501.031 451.837 504.568 453.28C507.806 454.597 510.198 458.997 510.653 463.741C511.07 468.353 509.945 472.973 507.454 476.876Z" fill="#E363FF"/>
<path d="M525.832 543.005C516.052 536.984 506.272 530.963 496.493 524.941L496.659 524.514C490.578 526.83 488.054 537.638 489.059 546.477C490.064 555.316 493.471 563.217 495.192 571.83C497.513 583.615 496.637 595.808 492.655 607.141C505.515 592.712 516.895 577.03 526.626 560.33C527.986 558.225 529.021 555.929 529.699 553.516C530.417 550.946 530.161 548.201 528.981 545.807C528.18 544.626 527.098 543.663 525.832 543.005Z" fill="#E363FF"/>
<path d="M487.235 433.459C486.087 435.925 485.91 438.733 486.74 441.323C487.705 443.41 489.455 445.031 491.61 445.834L497.013 448.512C498.811 449.403 500.749 450.303 502.581 449.57C504.792 448.686 506.324 445.22 505.928 442.003C505.506 438.58 503.348 436.225 501.352 434.22C498.56 431.414 495.767 428.608 492.974 425.802L491.4 427.729C489.698 429.39 488.289 431.327 487.235 433.459Z" fill="#E363FF"/>
<path d="M677.449 470.055C679.88 470.628 682.311 471.2 684.742 471.773C684.318 479.983 680.248 487.582 674.791 490.334C672.516 491.479 669.984 491.903 668.101 494.043C666.4 495.988 665.537 499.015 664.745 501.909C663.357 506.959 661.969 512.009 660.581 517.059C659.091 522.501 657.178 528.547 653.304 530.508C649.979 532.194 646.176 530.131 643.619 526.673C641.063 523.215 639.502 518.565 637.989 514.032C638.083 518.973 635.785 523.819 632.531 525.536C629.269 527.253 625.301 525.701 623.121 521.866C621.552 519.114 620.902 515.483 619.364 512.691C617.827 509.9 614.605 508.3 612.926 510.919C611.821 512.66 611.962 515.326 611.413 517.537C611.136 519.006 610.409 520.351 609.333 521.387C608.256 522.423 606.884 523.097 605.406 523.317C604.047 523.286 602.709 522.978 601.473 522.413C600.236 521.849 599.128 521.038 598.215 520.031C593.413 515.119 590.287 508.814 589.283 502.018C588.603 498.76 588.689 495.388 589.534 492.169C590.499 489.119 592.828 486.766 595.141 487.346C596.662 484.131 593.659 479.865 590.953 480.242C588.24 480.618 586.115 483.527 583.888 485.762C581.669 487.997 578.564 489.621 576.328 487.401C576.378 488.213 576.104 489.011 575.565 489.621C575.027 490.23 574.268 490.6 573.456 490.65C573.376 490.655 573.296 490.657 573.215 490.656C571.729 490.229 570.348 489.497 569.161 488.507C564.04 485.315 557.539 487.433 553.901 493.471C556.175 483.794 559.508 472.69 566.495 470.416C569.349 469.483 572.463 470.251 575.16 468.636C579.936 465.774 580.9 454.96 576.776 450.498C577.301 454.717 577.199 459.641 574.972 462.527C572.745 465.413 568.071 463.531 568.353 459.265C568.29 459.865 568.038 460.429 567.635 460.878C567.231 461.326 566.695 461.635 566.105 461.76C565.515 461.885 564.9 461.821 564.349 461.575C563.798 461.33 563.339 460.917 563.037 460.394C561.555 458.136 561.68 454.442 562.731 451.745C563.814 449.301 565.368 447.095 567.303 445.252C571.028 441.26 574.807 437.222 579.12 434.712C583.441 432.203 588.429 431.356 592.757 433.85C595.039 435.167 597.047 437.363 599.376 438.523C599.923 438.863 600.532 439.091 601.168 439.196C601.803 439.3 602.453 439.278 603.08 439.131C603.707 438.984 604.299 438.715 604.823 438.34C605.346 437.964 605.79 437.489 606.129 436.942C606.156 436.899 606.181 436.857 606.206 436.814C607.939 433.771 607.124 429.254 607.767 425.451C608.919 418.731 615.64 415.586 619.365 420.024C616.581 419.311 613.703 422.604 613.358 426.596C613.005 430.587 615.02 434.618 617.718 435.826C622.25 437.833 626.689 432.783 630.116 428.109C633.692 423.216 637.273 418.325 640.859 413.437C641.432 412.605 642.074 411.823 642.78 411.101C643.903 410.006 645.401 409.379 646.969 409.347C648.537 409.315 650.059 409.88 651.226 410.928C654.849 413.884 656.55 419.946 659.523 424.118C663.836 430.18 670.289 431.654 676.296 432.83C680.774 433.701 685.254 434.576 689.737 435.457C692.725 441.017 695.332 446.773 697.54 452.686C689.319 456.434 682.346 462.463 677.449 470.055Z" fill="#E363FF"/>
<path d="M701.853 466.338C700.934 469.046 700.432 471.878 700.363 474.737C696.52 470.047 695.908 461.257 698.433 455.171C699.727 458.826 700.867 462.548 701.853 466.338Z" fill="#E363FF"/>
<path d="M692 563.574C688.676 570.3 684.371 577.472 680 583.574C677.207 582.384 674.644 584.603 672.029 586.598C669.298 588.686 666.016 590.719 663.215 588.817C660.352 586.869 659.429 581.418 660.336 577.096C661.38 573.109 663.204 569.368 665.705 566.087C668.033 562.623 670.524 559.028 673.759 557.683C677.003 556.337 681.169 558.239 682.116 562.832L684.412 562.754C683.124 560.992 683.799 557.342 685.53 556.701C687.524 555.951 689.254 558.68 690.433 561.092C690.961 562.182 691.496 562.461 692 563.574Z" fill="#E363FF"/>
<path d="M603.025 531.285C598.036 531.599 594.084 525.457 591.458 519.414C588.832 513.372 586.436 506.462 581.934 503.387C579.362 501.629 576.429 501.388 573.639 500.536C572.056 500.137 570.592 499.366 569.367 498.287C568.142 497.208 567.192 495.854 566.595 494.334L563.43 493.056C559.003 495.269 554.948 498.16 551.414 501.624C547.374 505.915 544.858 511.415 544.253 517.277C543.649 523.612 545.881 530.676 550.053 533.055C553.349 534.936 557.187 533.751 560.525 535.472C564.697 537.623 567.173 543.87 568.111 550.039C569.048 556.208 568.811 562.619 569.481 568.857C570.152 575.096 572 581.588 575.826 584.785C580.613 588.786 587.638 585.461 589.785 578.178C590.839 574.606 590.803 570.575 591.591 566.867C592.978 560.336 596.723 555.491 599.693 550.134C602.663 544.777 605.001 537.502 603.025 531.285Z" fill="#E363FF"/>
<path d="M553.724 467.114C554.189 467.542 554.624 468.003 555.023 468.493C555.437 469.207 555.648 470.019 555.634 470.844C555.62 471.669 555.381 472.474 554.944 473.173C555.545 473.138 556.132 472.98 556.669 472.707C557.205 472.435 557.679 472.053 558.061 471.588C558.972 470.551 559.773 469.423 560.452 468.221C560.771 467.809 560.999 467.335 561.12 466.828C561.242 466.322 561.254 465.795 561.156 465.284C560.921 464.611 560.363 464.324 559.973 463.818C559.431 462.829 559.061 461.755 558.879 460.642C558.663 459.599 558.159 458.637 557.426 457.865C556.693 457.092 555.759 456.539 554.728 456.268L554.978 456.316C554.553 456.568 554.217 456.948 554.018 457.401C553.818 457.854 553.766 458.358 553.867 458.842C554.019 459.821 554.648 460.633 554.585 461.631C554.495 463.066 553.061 463.74 552.972 465.175C552.958 465.895 553.228 466.592 553.724 467.114Z" fill="#E363FF"/>
<path d="M545.176 442.726L545.199 442.722C545.352 442.582 545.494 442.43 545.624 442.268L545.176 442.726Z" fill="#E363FF"/>
<path d="M546.672 449.462C547.272 448.936 547.715 448.256 547.954 447.495C548.193 446.735 548.218 445.923 548.027 445.149C547.664 443.517 546.382 442.42 545.198 442.721C544.855 443.069 544.429 443.324 543.96 443.463C543.491 443.601 542.995 443.617 542.518 443.511C541.786 443.322 540.983 442.837 540.349 443.389C539.986 443.8 539.732 444.296 539.61 444.831C539.375 445.552 539.14 446.273 538.905 446.994C538.794 447.252 538.765 447.538 538.822 447.813C538.867 447.923 538.94 448.02 539.033 448.094C539.126 448.169 539.237 448.217 539.355 448.236C540.764 448.652 542.173 449.067 543.581 449.482C544.067 449.706 544.595 449.82 545.129 449.817C545.663 449.813 546.19 449.692 546.672 449.462Z" fill="#E363FF"/>
<path d="M653.04 542.465C652.389 541.399 651.738 540.333 651.086 539.266C650.447 538.032 649.572 536.933 648.512 536.034C648.282 535.841 648.017 535.696 647.731 535.606C647.445 535.516 647.144 535.483 646.846 535.51C646.547 535.536 646.257 535.621 645.991 535.76C645.726 535.898 645.49 536.088 645.298 536.317L645.264 536.359L645.343 536.968C647.087 538.838 648.275 541.156 648.775 543.664C648.923 544.754 648.872 545.881 649.002 546.976C649.016 547.483 649.129 547.983 649.336 548.447C649.543 548.91 649.84 549.328 650.208 549.677C651.234 550.363 652.438 549.352 653.168 548.12C653.821 547.107 654.113 545.905 653.999 544.706C653.836 543.901 653.51 543.139 653.04 542.465Z" fill="#E363FF"/>
<path d="M663.257 543.853C663.381 542.855 663.3 541.842 663.019 540.876C662.972 539.569 663.319 538.279 664.013 537.171C664.703 536.126 665.226 534.98 665.563 533.773C665.705 533.224 665.679 532.644 665.489 532.11C665.273 531.625 664.751 531.404 664.451 531.788L665.092 532.201C664.227 532.046 663.338 532.089 662.491 532.327C662.008 532.512 661.577 532.81 661.234 533.197C660.891 533.584 660.646 534.048 660.52 534.549C660.414 535.331 660.241 536.103 660.003 536.855C659.62 537.641 658.88 537.902 658.415 538.592C658.098 539.204 657.938 539.884 657.949 540.573C657.961 541.262 658.143 541.937 658.48 542.538C659.065 543.52 659.993 544.251 661.086 544.586C661.868 544.867 662.899 544.882 663.257 543.853Z" fill="#E363FF"/>
<path d="M681.452 549.343C681.735 550.079 682.114 550.775 682.58 551.412C683.451 552.289 684.635 551.75 685.691 551.537C686.65 551.386 687.632 551.496 688.533 551.858C689.434 552.219 690.221 552.818 690.809 553.59C690.399 551.546 689.505 549.63 688.201 548.004C686.898 546.377 685.223 545.087 683.317 544.242C680.841 543.385 678.231 542.977 675.612 543.037L675.164 543.152C676.304 546.471 679.885 546.397 681.452 549.343Z" fill="#E363FF"/>
<path d="M604.39 556.132L604.397 556.146L604.527 555.896L604.39 556.132Z" fill="#E363FF"/>
<path d="M601.63 561.474C601.028 562.567 600.51 563.705 600.081 564.876C599.513 566.774 599.137 568.724 598.959 570.697C598.819 571.819 598.775 573.251 599.478 573.798C599.68 573.932 599.924 573.988 600.164 573.955C600.404 573.923 600.624 573.804 600.782 573.621C601.173 573.208 601.492 572.733 601.728 572.216C603.109 569.837 604.182 567.291 604.919 564.641C605.689 561.829 605.505 558.842 604.397 556.146C603.474 557.922 602.552 559.698 601.63 561.474Z" fill="#E363FF"/>
<path d="M575.002 419.133C575.44 419.561 575.995 419.852 576.596 419.97C577.198 420.087 577.821 420.026 578.389 419.794C579.564 419.28 580.642 418.568 581.575 417.689C582.348 417.117 583.004 416.402 583.507 415.582C583.784 415.092 583.961 414.552 584.029 413.993C584.097 413.435 584.054 412.868 583.902 412.326C583.686 411.807 583.341 411.351 582.9 411.002C582.459 410.653 581.937 410.423 581.382 410.332C579.818 409.868 578.254 409.405 576.69 408.941L577.821 407.921C576.657 407.297 575.37 408.456 574.642 409.891C574.175 410.828 573.85 411.83 573.677 412.862C573.429 413.941 573.42 415.061 573.649 416.143C573.877 417.226 574.339 418.246 575.002 419.133Z" fill="#E363FF"/>
<path d="M602.613 409.864C603.053 410.35 603.663 410.65 604.317 410.703C604.971 410.756 605.62 410.558 606.134 410.15C606.576 409.818 606.943 409.397 607.211 408.914C607.48 408.43 607.643 407.896 607.691 407.345C607.802 406.115 607.194 404.748 606.325 404.641L606.524 403.49C604.85 403.187 602.791 403.127 601.894 405.159C601.592 405.938 601.499 406.782 601.625 407.607C601.751 408.433 602.092 409.211 602.613 409.864Z" fill="#E363FF"/>
</g>
<path d="M151.925 869.895L165.207 873.492L185.406 823.969L165.801 818.659L151.925 869.895Z" fill="#FFB6B6"/>
<path d="M147.703 883.625L188.551 894.689L188.691 894.172C189.833 889.955 189.253 885.458 187.079 881.669C184.905 877.88 181.315 875.109 177.099 873.967L177.098 873.966L171.17 866.285L155.715 868.175L152.149 867.209L147.703 883.625Z" fill="#2F2E41"/>
<path d="M243.64 881.421L257.401 881.42L263.948 828.338L243.637 828.339L243.64 881.421Z" fill="#FFB6B6"/>
<path d="M243.155 895.777L285.474 895.775V895.24C285.474 890.871 283.738 886.682 280.649 883.593C277.56 880.504 273.371 878.769 269.002 878.768H269.001L261.271 872.904L246.848 878.769L243.154 878.769L243.155 895.777Z" fill="#2F2E41"/>
<g filter="url(#filter2_i_1_141)">
<rect x="161" y="378.573" width="26" height="13" fill="#FFB6B6"/>
</g>
<path d="M249.516 575.337L267.984 836.915L238.243 839.55L196.751 645.69L201.348 757.856L184.881 846.076L159.707 833.903L160.125 742.044L127.074 593.602L135.871 575.337H249.516Z" fill="#2F2E41"/>
<path d="M131.292 607.883L131.107 607.624C121.251 593.825 136.075 560.666 138.311 555.859C135.656 554.997 133.382 553.242 131.875 550.892C130.369 548.542 129.724 545.742 130.05 542.97L131.014 534.777L132.019 526.741L124.821 519.544L124.801 519.364L120.659 483.122L114.637 459.05C112.368 449.95 112.561 440.41 115.197 431.409C117.833 422.409 122.817 414.272 129.637 407.834L143.558 405.623L160.475 389.323H187.757L197.112 398.26C214.574 401.323 217.574 400.323 232.574 418.323L225.758 474.285L224.058 481.984L224.063 492.426L228.386 497.23C229.943 498.96 231.075 501.031 231.69 503.276C232.306 505.521 232.389 507.879 231.932 510.161L231.364 513.004C235.822 514.914 240.076 548.869 241.093 553.612L242.611 560.697C243.91 562.411 252.484 573.843 252.484 576.968C252.484 577.437 252.137 577.891 251.394 578.394C245.551 582.35 222.256 610.416 207.963 604.697C192.738 598.609 132.216 607.742 131.606 607.835L131.292 607.883Z" fill="#3F3D56"/>
<path d="M127.626 542.808C127.626 542.808 134.632 503.213 127.574 488.323L99.5743 490.323L103.836 546.809L128.313 609.527C127.939 611.459 128.083 613.456 128.731 615.314C129.379 617.173 130.506 618.827 132 620.108C133.493 621.39 135.3 622.254 137.235 622.612C139.17 622.97 141.166 622.809 143.019 622.147C144.872 621.484 146.517 620.343 147.787 618.84C149.056 617.336 149.905 615.523 150.248 613.585C150.59 611.647 150.414 609.652 149.737 607.805C149.059 605.957 147.905 604.321 146.391 603.064L127.626 542.808Z" fill="#FFB6B6"/>
<path d="M99.5743 467.323L101.307 448.451C101.959 441.349 104.009 434.445 107.339 428.138C110.669 421.831 115.213 416.244 120.71 411.699C124.125 408.897 128.257 407.105 132.637 406.526C137.017 405.948 141.472 406.607 145.497 408.427C150.938 410.932 155.224 415.409 157.49 420.954C159.756 426.498 159.831 432.696 157.702 438.294C151.231 455.266 153.567 473.215 140.949 475.403L142.32 481.926L129.912 522.416L94.5742 518.323L99.5743 467.323Z" fill="#3F3D56"/>
<path d="M238.354 596.508C237.116 598.038 236.304 599.868 236.002 601.813C235.7 603.758 235.918 605.748 236.633 607.581C237.349 609.414 238.537 611.026 240.076 612.252C241.616 613.478 243.453 614.274 245.4 614.561C247.347 614.847 249.335 614.614 251.163 613.883C252.99 613.153 254.592 611.952 255.806 610.402C257.019 608.853 257.801 607.01 258.072 605.061C258.343 603.111 258.093 601.125 257.348 599.303L269.061 533.005L262.171 476.779L234.322 480.304C230.319 496.289 244.947 533.744 244.947 533.744L238.354 596.508Z" fill="#FFB6B6"/>
<path d="M272.561 503.256L238.71 514.195L225.677 493.863L225.743 487.199C212.94 487.525 204.647 452.524 194.975 437.149C191.79 432.077 190.65 425.984 191.785 420.103C192.92 414.223 196.247 408.992 201.091 405.47C204.682 402.896 208.921 401.377 213.33 401.086C217.738 400.795 222.14 401.742 226.039 403.822C232.32 407.201 237.87 411.789 242.371 417.322C246.873 422.854 250.236 429.222 252.267 436.059L257.664 454.225L272.561 503.256Z" fill="#3F3D56"/>
<path d="M173.299 382.171C190.032 382.171 203.597 368.606 203.597 351.872C203.597 335.139 190.032 321.573 173.299 321.573C156.565 321.573 143 335.139 143 351.872C143 368.606 156.565 382.171 173.299 382.171Z" fill="#FFB6B6"/>
<path d="M150.287 372.505C150.023 372.273 149.773 372.026 149.515 371.787C149.505 371.812 149.504 371.837 149.494 371.861L150.287 372.505Z" fill="#2F2E41"/>
<path d="M198.117 319.153C196.612 316.73 194.527 314.72 192.05 313.304C190.357 312.483 188.578 311.852 186.746 311.424L181.951 310.116C179.494 309.356 176.967 308.847 174.407 308.597C170.853 308.422 167.318 309.227 164.19 310.924C161.062 312.621 158.461 315.144 156.67 318.22C155.221 320.789 154.059 323.991 151.263 324.931C149.009 325.689 146.549 324.62 144.179 324.828C142.791 325.029 141.474 325.569 140.344 326.401C139.215 327.233 138.308 328.331 137.704 329.598C136.523 332.146 135.942 334.931 136.005 337.739C135.912 344.114 137.156 350.437 139.657 356.302C142.158 362.166 145.861 367.441 150.526 371.787C151.308 369.726 150.02 367.5 149.002 365.528C147.972 363.533 147.335 360.751 149.061 359.314C150.981 357.715 154.057 359.266 156.328 358.223C157.054 357.806 157.666 357.215 158.108 356.504C158.551 355.793 158.81 354.983 158.864 354.147C159.084 352.49 158.854 350.806 158.958 349.138C159.061 347.494 159.486 345.886 160.21 344.407C160.933 342.927 161.941 341.605 163.176 340.515C164.411 339.425 165.848 338.589 167.406 338.054C168.964 337.52 170.612 337.298 172.256 337.4C172.294 337.403 172.332 337.405 172.37 337.408C177.538 337.777 182.554 341.309 187.528 339.856C189.863 339.174 191.854 337.437 194.268 337.145C196.943 336.822 198.842 338.407 201.113 339.856C201.938 336.352 202.659 332.642 202.039 329.096C201.418 325.551 200.084 322.168 198.117 319.153Z" fill="#2F2E41"/>
<path d="M226.996 690.684C191.397 690.685 158.302 689.463 128.674 686.998C89.9476 683.775 59.2596 678.595 37.4637 671.602C14.387 664.196 2.14436 654.935 1.07551 644.073C-1.00749 622.915 40.4095 603.349 75.5208 590.66L76.5404 593.482C28.3236 610.906 2.58336 628.769 4.06087 643.78C5.9427 662.899 51.453 677.562 128.923 684.008C208.248 690.608 312.64 688.27 422.87 677.418C533.1 666.569 635.946 648.512 712.461 626.572C787.187 605.146 828.966 581.893 827.084 562.773C825.522 546.899 793.882 533.98 737.992 526.395L738.396 523.422C779.006 528.934 827.875 540.184 830.07 562.479C831.139 573.341 820.936 584.811 799.747 596.573C779.732 607.683 750.643 618.746 713.288 629.456C636.603 651.444 533.569 669.537 423.164 680.404C353.905 687.221 286.919 690.684 226.996 690.684Z" fill="#E363FF"/>
<path d="M719.651 686.777C706.739 686.777 692.587 686.289 677.194 685.313C597.581 680.258 494.457 662.68 386.818 635.821C279.181 608.962 179.888 576.027 107.233 543.087C71.8404 527.04 44.6769 511.85 26.4977 497.939C7.25059 483.212 -1.16835 470.375 1.47372 459.786C6.62167 439.157 52.2047 434.644 89.5377 434.491L89.5504 437.491C38.2823 437.701 8.03674 445.878 4.38488 460.513C-0.266969 479.153 37.6715 508.254 108.472 540.354C180.967 573.222 280.077 606.094 387.545 632.911C495.012 659.727 597.946 677.274 677.385 682.319C754.964 687.247 802.128 679.382 806.779 660.741C810.641 645.264 785.181 622.466 735.09 596.543L736.469 593.879C772.866 612.715 815.114 639.73 809.691 661.468C807.048 672.056 793.585 679.432 769.675 683.39C756.046 685.646 739.305 686.777 719.651 686.777Z" fill="#E363FF"/>
<g filter="url(#filter3_dd_1_141)">
<path d="M300.5 351.574C328.391 351.574 351 328.964 351 301.074C351 273.183 328.391 250.574 300.5 250.574C272.61 250.574 250 273.183 250 301.074C250 328.964 272.61 351.574 300.5 351.574Z" fill="#E6E6E6"/>
</g>
<path d="M295.533 272.098C298.734 272.098 301.328 269.504 301.328 266.303C301.328 263.103 298.734 260.508 295.533 260.508C292.332 260.508 289.738 263.103 289.738 266.303C289.738 269.504 292.332 272.098 295.533 272.098Z" fill="#CBCBCB" fill-opacity="0.46"/>
<path d="M305.467 330.049C308.668 330.049 311.263 327.455 311.263 324.254C311.263 321.054 308.668 318.459 305.467 318.459C302.267 318.459 299.672 321.054 299.672 324.254C299.672 327.455 302.267 330.049 305.467 330.049Z" fill="#CBCBCB" fill-opacity="0.46"/>
<path d="M327.82 296.106C330.106 296.106 331.959 294.253 331.959 291.967C331.959 289.681 330.106 287.828 327.82 287.828C325.534 287.828 323.681 289.681 323.681 291.967C323.681 294.253 325.534 296.106 327.82 296.106Z" fill="#CBCBCB" fill-opacity="0.46"/>
<path d="M280.631 318.459C287.947 318.459 293.877 312.529 293.877 305.213C293.877 297.898 287.947 291.967 280.631 291.967C273.316 291.967 267.385 297.898 267.385 305.213C267.385 312.529 273.316 318.459 280.631 318.459Z" fill="#CBCBCB" fill-opacity="0.46"/>
<path d="M438.848 754.049C448.504 754.049 456.331 746.222 456.331 736.566C456.331 726.91 448.504 719.083 438.848 719.083C429.192 719.083 421.365 726.91 421.365 736.566C421.365 746.222 429.192 754.049 438.848 754.049Z" fill="#E363FF"/>
<path d="M94.5742 650.829C104.23 650.829 112.057 643.002 112.057 633.346C112.057 623.691 104.23 615.863 94.5742 615.863C84.9186 615.863 77.0912 623.691 77.0912 633.346C77.0912 643.002 84.9186 650.829 94.5742 650.829Z" fill="#E6E6E6"/>
<path d="M415.573 382.849C421.484 382.849 426.276 378.057 426.276 372.146C426.276 366.236 421.484 361.444 415.573 361.444C409.662 361.444 404.871 366.236 404.871 372.146C404.871 378.057 409.662 382.849 415.573 382.849Z" fill="#FF6584"/>
<path d="M350.82 463.639C360.476 463.639 368.303 455.811 368.303 446.156C368.303 436.5 360.476 428.673 350.82 428.673C341.164 428.673 333.337 436.5 333.337 446.156C333.337 455.811 341.164 463.639 350.82 463.639Z" fill="#42127D" fill-opacity="0.77"/>
<g filter="url(#filter4_d_1_141)">
<path d="M329.667 385.002L330.041 386.038H331.252L330.272 386.679L330.646 387.715L329.667 387.075L328.687 387.715L329.061 386.679L328.082 386.038H329.292L329.667 385.002Z" fill="#D9D9D9"/>
</g>
<g filter="url(#filter5_d_1_141)">
<path d="M246 271.002L246.225 271.693H246.951L246.363 272.12L246.588 272.811L246 272.384L245.412 272.811L245.637 272.12L245.049 271.693H245.775L246 271.002Z" fill="#D9D9D9"/>
</g>
<g filter="url(#filter6_di_1_141)">
<path d="M389.056 213.7L389.966 216.222H392.913L390.529 217.781L391.44 220.303L389.056 218.744L386.672 220.303L387.582 217.781L385.199 216.222H388.145L389.056 213.7Z" fill="white"/>
</g>
<g filter="url(#filter7_d_1_141)">
<path d="M270.778 431.002L271.401 432.729H273.42L271.787 433.797L272.411 435.524L270.778 434.457L269.145 435.524L269.769 433.797L268.136 432.729H270.154L270.778 431.002Z" fill="#D9D9D9"/>
</g>
<g filter="url(#filter8_d_1_141)">
<path d="M110.667 597.002L111.041 598.038H112.252L111.272 598.679L111.646 599.715L110.667 599.075L109.687 599.715L110.061 598.679L109.082 598.038H110.292L110.667 597.002Z" fill="#D9D9D9"/>
</g>
<g filter="url(#filter9_d_1_141)">
<path d="M386.667 651.002L387.041 652.038H388.252L387.272 652.679L387.646 653.715L386.667 653.075L385.687 653.715L386.061 652.679L385.082 652.038H386.292L386.667 651.002Z" fill="#D9D9D9"/>
</g>
<g filter="url(#filter10_d_1_141)">
<path d="M299.667 559.002L300.041 560.038H301.252L300.272 560.679L300.646 561.715L299.667 561.075L298.687 561.715L299.061 560.679L298.082 560.038H299.292L299.667 559.002Z" fill="#D9D9D9"/>
</g>
<g filter="url(#filter11_d_1_141)">
<path d="M466.667 352.002L467.041 353.038H468.252L467.272 353.679L467.646 354.715L466.667 354.075L465.687 354.715L466.061 353.679L465.082 353.038H466.292L466.667 352.002Z" fill="#D9D9D9"/>
</g>
<g filter="url(#filter12_d_1_141)">
<path d="M408.222 503.002L408.472 503.693H409.279L408.626 504.12L408.875 504.811L408.222 504.384L407.569 504.811L407.819 504.12L407.165 503.693H407.973L408.222 503.002Z" fill="#D9D9D9"/>
</g>
<g filter="url(#filter13_d_1_141)">
<path d="M564.667 321.002L565.041 322.038H566.252L565.272 322.679L565.646 323.715L564.667 323.075L563.687 323.715L564.061 322.679L563.082 322.038H564.292L564.667 321.002Z" fill="#D9D9D9"/>
</g>
<g filter="url(#filter14_d_1_141)">
<path d="M151.667 285.002L152.041 286.038H153.252L152.272 286.679L152.646 287.715L151.667 287.075L150.687 287.715L151.061 286.679L150.082 286.038H151.292L151.667 285.002Z" fill="#D9D9D9"/>
</g>
<g filter="url(#filter15_d_1_141)">
<path d="M78.6667 398.002L79.0409 399.038H80.2518L79.2721 399.679L79.6463 400.715L78.6667 400.075L77.687 400.715L78.0612 399.679L77.0816 399.038H78.2925L78.6667 398.002Z" fill="#D9D9D9"/>
</g>
<defs>
<filter id="filter0_i_1_141" x="334" y="269.574" width="372.416" height="372.417" filterUnits="userSpaceOnUse" color-interpolation-filters="sRGB">
<feFlood flood-opacity="0" result="BackgroundImageFix"/>
<feBlend mode="normal" in="SourceGraphic" in2="BackgroundImageFix" result="shape"/>
<feColorMatrix in="SourceAlpha" type="matrix" values="0 0 0 0 0 0 0 0 0 0 0 0 0 0 0 0 0 0 127 0" result="hardAlpha"/>
<feOffset dx="-100" dy="-100"/>
<feGaussianBlur stdDeviation="46"/>
<feComposite in2="hardAlpha" operator="arithmetic" k2="-1" k3="1"/>
<feColorMatrix type="matrix" values="0 0 0 0 0 0 0 0 0 0 0 0 0 0 0 0 0 0 0.82 0"/>
<feBlend mode="normal" in2="shape" result="effect1_innerShadow_1_141"/>
</filter>
<filter id="filter1_d_1_141" x="416.4" y="350.974" width="307.616" height="307.617" filterUnits="userSpaceOnUse" color-interpolation-filters="sRGB">
<feFlood flood-opacity="0" result="BackgroundImageFix"/>
<feColorMatrix in="SourceAlpha" type="matrix" values="0 0 0 0 0 0 0 0 0 0 0 0 0 0 0 0 0 0 127 0" result="hardAlpha"/>
<feOffset dx="4" dy="3"/>
<feGaussianBlur stdDeviation="6.8"/>
<feComposite in2="hardAlpha" operator="out"/>
<feColorMatrix type="matrix" values="0 0 0 0 1 0 0 0 0 1 0 0 0 0 1 0 0 0 0.26 0"/>
<feBlend mode="normal" in2="BackgroundImageFix" result="effect1_dropShadow_1_141"/>
<feBlend mode="normal" in="SourceGraphic" in2="effect1_dropShadow_1_141" result="shape"/>
</filter>
<filter id="filter2_i_1_141" x="161" y="378.573" width="26" height="17" filterUnits="userSpaceOnUse" color-interpolation-filters="sRGB">
<feFlood flood-opacity="0" result="BackgroundImageFix"/>
<feBlend mode="normal" in="SourceGraphic" in2="BackgroundImageFix" result="shape"/>
<feColorMatrix in="SourceAlpha" type="matrix" values="0 0 0 0 0 0 0 0 0 0 0 0 0 0 0 0 0 0 127 0" result="hardAlpha"/>
<feOffset dy="4"/>
<feGaussianBlur stdDeviation="2.45"/>
<feComposite in2="hardAlpha" operator="arithmetic" k2="-1" k3="1"/>
<feColorMatrix type="matrix" values="0 0 0 0 0 0 0 0 0 0 0 0 0 0 0 0 0 0 0.34 0"/>
<feBlend mode="normal" in2="shape" result="effect1_innerShadow_1_141"/>
</filter>
<filter id="filter3_dd_1_141" x="0.000244141" y="0.57373" width="601" height="601" filterUnits="userSpaceOnUse" color-interpolation-filters="sRGB">
<feFlood flood-opacity="0" result="BackgroundImageFix"/>
<feColorMatrix in="SourceAlpha" type="matrix" values="0 0 0 0 0 0 0 0 0 0 0 0 0 0 0 0 0 0 127 0" result="hardAlpha"/>
<feOffset/>
<feGaussianBlur stdDeviation="44.25"/>
<feComposite in2="hardAlpha" operator="out"/>
<feColorMatrix type="matrix" values="0 0 0 0 1 0 0 0 0 1 0 0 0 0 1 0 0 0 1 0"/>
<feBlend mode="normal" in2="BackgroundImageFix" result="effect1_dropShadow_1_141"/>
<feColorMatrix in="SourceAlpha" type="matrix" values="0 0 0 0 0 0 0 0 0 0 0 0 0 0 0 0 0 0 127 0" result="hardAlpha"/>
<feOffset/>
<feGaussianBlur stdDeviation="125"/>
<feComposite in2="hardAlpha" operator="out"/>
<feColorMatrix type="matrix" values="0 0 0 0 1 0 0 0 0 1 0 0 0 0 1 0 0 0 1 0"/>
<feBlend mode="normal" in2="effect1_dropShadow_1_141" result="effect2_dropShadow_1_141"/>
<feBlend mode="normal" in="SourceGraphic" in2="effect2_dropShadow_1_141" result="shape"/>
</filter>
<filter id="filter4_d_1_141" x="327.482" y="384.402" width="4.37022" height="3.91368" filterUnits="userSpaceOnUse" color-interpolation-filters="sRGB">
<feFlood flood-opacity="0" result="BackgroundImageFix"/>
<feColorMatrix in="SourceAlpha" type="matrix" values="0 0 0 0 0 0 0 0 0 0 0 0 0 0 0 0 0 0 127 0" result="hardAlpha"/>
<feOffset/>
<feGaussianBlur stdDeviation="0.300015"/>
<feComposite in2="hardAlpha" operator="out"/>
<feColorMatrix type="matrix" values="0 0 0 0 1 0 0 0 0 1 0 0 0 0 1 0 0 0 1 0"/>
<feBlend mode="normal" in2="BackgroundImageFix" result="effect1_dropShadow_1_141"/>
<feBlend mode="normal" in="SourceGraphic" in2="effect1_dropShadow_1_141" result="shape"/>
</filter>
<filter id="filter5_d_1_141" x="244.449" y="270.402" width="3.10216" height="3.00914" filterUnits="userSpaceOnUse" color-interpolation-filters="sRGB">
<feFlood flood-opacity="0" result="BackgroundImageFix"/>
<feColorMatrix in="SourceAlpha" type="matrix" values="0 0 0 0 0 0 0 0 0 0 0 0 0 0 0 0 0 0 127 0" result="hardAlpha"/>
<feOffset/>
<feGaussianBlur stdDeviation="0.300015"/>
<feComposite in2="hardAlpha" operator="out"/>
<feColorMatrix type="matrix" values="0 0 0 0 1 0 0 0 0 1 0 0 0 0 1 0 0 0 1 0"/>
<feBlend mode="normal" in2="BackgroundImageFix" result="effect1_dropShadow_1_141"/>
<feBlend mode="normal" in="SourceGraphic" in2="effect1_dropShadow_1_141" result="shape"/>
</filter>
<filter id="filter6_di_1_141" x="383.121" y="211.622" width="11.87" height="10.9273" filterUnits="userSpaceOnUse" color-interpolation-filters="sRGB">
<feFlood flood-opacity="0" result="BackgroundImageFix"/>
<feColorMatrix in="SourceAlpha" type="matrix" values="0 0 0 0 0 0 0 0 0 0 0 0 0 0 0 0 0 0 127 0" result="hardAlpha"/>
<feOffset/>
<feGaussianBlur stdDeviation="1.03889"/>
<feComposite in2="hardAlpha" operator="out"/>
<feColorMatrix type="matrix" values="0 0 0 0 1 0 0 0 0 1 0 0 0 0 1 0 0 0 1 0"/>
<feBlend mode="normal" in2="BackgroundImageFix" result="effect1_dropShadow_1_141"/>
<feBlend mode="normal" in="SourceGraphic" in2="effect1_dropShadow_1_141" result="shape"/>
<feColorMatrix in="SourceAlpha" type="matrix" values="0 0 0 0 0 0 0 0 0 0 0 0 0 0 0 0 0 0 127 0" result="hardAlpha"/>
<feOffset dy="2.24624"/>
<feGaussianBlur stdDeviation="35.2941"/>
<feComposite in2="hardAlpha" operator="arithmetic" k2="-1" k3="1"/>
<feColorMatrix type="matrix" values="0 0 0 0 1 0 0 0 0 1 0 0 0 0 1 0 0 0 1 0"/>
<feBlend mode="normal" in2="shape" result="effect2_innerShadow_1_141"/>
</filter>
<filter id="filter7_d_1_141" x="267.136" y="430.002" width="7.28367" height="6.52256" filterUnits="userSpaceOnUse" color-interpolation-filters="sRGB">
<feFlood flood-opacity="0" result="BackgroundImageFix"/>
<feColorMatrix in="SourceAlpha" type="matrix" values="0 0 0 0 0 0 0 0 0 0 0 0 0 0 0 0 0 0 127 0" result="hardAlpha"/>
<feOffset/>
<feGaussianBlur stdDeviation="0.500024"/>
<feComposite in2="hardAlpha" operator="out"/>
<feColorMatrix type="matrix" values="0 0 0 0 1 0 0 0 0 1 0 0 0 0 1 0 0 0 1 0"/>
<feBlend mode="normal" in2="BackgroundImageFix" result="effect1_dropShadow_1_141"/>
<feBlend mode="normal" in="SourceGraphic" in2="effect1_dropShadow_1_141" result="shape"/>
</filter>
<filter id="filter8_d_1_141" x="108.482" y="596.402" width="4.37022" height="3.91344" filterUnits="userSpaceOnUse" color-interpolation-filters="sRGB">
<feFlood flood-opacity="0" result="BackgroundImageFix"/>
<feColorMatrix in="SourceAlpha" type="matrix" values="0 0 0 0 0 0 0 0 0 0 0 0 0 0 0 0 0 0 127 0" result="hardAlpha"/>
<feOffset/>
<feGaussianBlur stdDeviation="0.300015"/>
<feComposite in2="hardAlpha" operator="out"/>
<feColorMatrix type="matrix" values="0 0 0 0 1 0 0 0 0 1 0 0 0 0 1 0 0 0 1 0"/>
<feBlend mode="normal" in2="BackgroundImageFix" result="effect1_dropShadow_1_141"/>
<feBlend mode="normal" in="SourceGraphic" in2="effect1_dropShadow_1_141" result="shape"/>
</filter>
<filter id="filter9_d_1_141" x="384.482" y="650.402" width="4.37022" height="3.91344" filterUnits="userSpaceOnUse" color-interpolation-filters="sRGB">
<feFlood flood-opacity="0" result="BackgroundImageFix"/>
<feColorMatrix in="SourceAlpha" type="matrix" values="0 0 0 0 0 0 0 0 0 0 0 0 0 0 0 0 0 0 127 0" result="hardAlpha"/>
<feOffset/>
<feGaussianBlur stdDeviation="0.300015"/>
<feComposite in2="hardAlpha" operator="out"/>
<feColorMatrix type="matrix" values="0 0 0 0 1 0 0 0 0 1 0 0 0 0 1 0 0 0 1 0"/>
<feBlend mode="normal" in2="BackgroundImageFix" result="effect1_dropShadow_1_141"/>
<feBlend mode="normal" in="SourceGraphic" in2="effect1_dropShadow_1_141" result="shape"/>
</filter>
<filter id="filter10_d_1_141" x="297.482" y="558.402" width="4.37022" height="3.91368" filterUnits="userSpaceOnUse" color-interpolation-filters="sRGB">
<feFlood flood-opacity="0" result="BackgroundImageFix"/>
<feColorMatrix in="SourceAlpha" type="matrix" values="0 0 0 0 0 0 0 0 0 0 0 0 0 0 0 0 0 0 127 0" result="hardAlpha"/>
<feOffset/>
<feGaussianBlur stdDeviation="0.300015"/>
<feComposite in2="hardAlpha" operator="out"/>
<feColorMatrix type="matrix" values="0 0 0 0 1 0 0 0 0 1 0 0 0 0 1 0 0 0 1 0"/>
<feBlend mode="normal" in2="BackgroundImageFix" result="effect1_dropShadow_1_141"/>
<feBlend mode="normal" in="SourceGraphic" in2="effect1_dropShadow_1_141" result="shape"/>
</filter>
<filter id="filter11_d_1_141" x="464.482" y="351.402" width="4.37022" height="3.91368" filterUnits="userSpaceOnUse" color-interpolation-filters="sRGB">
<feFlood flood-opacity="0" result="BackgroundImageFix"/>
<feColorMatrix in="SourceAlpha" type="matrix" values="0 0 0 0 0 0 0 0 0 0 0 0 0 0 0 0 0 0 127 0" result="hardAlpha"/>
<feOffset/>
<feGaussianBlur stdDeviation="0.300015"/>
<feComposite in2="hardAlpha" operator="out"/>
<feColorMatrix type="matrix" values="0 0 0 0 1 0 0 0 0 1 0 0 0 0 1 0 0 0 1 0"/>
<feBlend mode="normal" in2="BackgroundImageFix" result="effect1_dropShadow_1_141"/>
<feBlend mode="normal" in="SourceGraphic" in2="effect1_dropShadow_1_141" result="shape"/>
</filter>
<filter id="filter12_d_1_141" x="406.765" y="502.602" width="2.91356" height="2.60912" filterUnits="userSpaceOnUse" color-interpolation-filters="sRGB">
<feFlood flood-opacity="0" result="BackgroundImageFix"/>
<feColorMatrix in="SourceAlpha" type="matrix" values="0 0 0 0 0 0 0 0 0 0 0 0 0 0 0 0 0 0 127 0" result="hardAlpha"/>
<feOffset/>
<feGaussianBlur stdDeviation="0.20001"/>
<feComposite in2="hardAlpha" operator="out"/>
<feColorMatrix type="matrix" values="0 0 0 0 1 0 0 0 0 1 0 0 0 0 1 0 0 0 1 0"/>
<feBlend mode="normal" in2="BackgroundImageFix" result="effect1_dropShadow_1_141"/>
<feBlend mode="normal" in="SourceGraphic" in2="effect1_dropShadow_1_141" result="shape"/>
</filter>
<filter id="filter13_d_1_141" x="562.482" y="320.402" width="4.37022" height="3.91368" filterUnits="userSpaceOnUse" color-interpolation-filters="sRGB">
<feFlood flood-opacity="0" result="BackgroundImageFix"/>
<feColorMatrix in="SourceAlpha" type="matrix" values="0 0 0 0 0 0 0 0 0 0 0 0 0 0 0 0 0 0 127 0" result="hardAlpha"/>
<feOffset/>
<feGaussianBlur stdDeviation="0.300015"/>
<feComposite in2="hardAlpha" operator="out"/>
<feColorMatrix type="matrix" values="0 0 0 0 1 0 0 0 0 1 0 0 0 0 1 0 0 0 1 0"/>
<feBlend mode="normal" in2="BackgroundImageFix" result="effect1_dropShadow_1_141"/>
<feBlend mode="normal" in="SourceGraphic" in2="effect1_dropShadow_1_141" result="shape"/>
</filter>
<filter id="filter14_d_1_141" x="149.482" y="284.402" width="4.37022" height="3.91368" filterUnits="userSpaceOnUse" color-interpolation-filters="sRGB">
<feFlood flood-opacity="0" result="BackgroundImageFix"/>
<feColorMatrix in="SourceAlpha" type="matrix" values="0 0 0 0 0 0 0 0 0 0 0 0 0 0 0 0 0 0 127 0" result="hardAlpha"/>
<feOffset/>
<feGaussianBlur stdDeviation="0.300015"/>
<feComposite in2="hardAlpha" operator="out"/>
<feColorMatrix type="matrix" values="0 0 0 0 1 0 0 0 0 1 0 0 0 0 1 0 0 0 1 0"/>
<feBlend mode="normal" in2="BackgroundImageFix" result="effect1_dropShadow_1_141"/>
<feBlend mode="normal" in="SourceGraphic" in2="effect1_dropShadow_1_141" result="shape"/>
</filter>
<filter id="filter15_d_1_141" x="76.4815" y="397.402" width="4.37022" height="3.91368" filterUnits="userSpaceOnUse" color-interpolation-filters="sRGB">
<feFlood flood-opacity="0" result="BackgroundImageFix"/>
<feColorMatrix in="SourceAlpha" type="matrix" values="0 0 0 0 0 0 0 0 0 0 0 0 0 0 0 0 0 0 127 0" result="hardAlpha"/>
<feOffset/>
<feGaussianBlur stdDeviation="0.300015"/>
<feComposite in2="hardAlpha" operator="out"/>
<feColorMatrix type="matrix" values="0 0 0 0 1 0 0 0 0 1 0 0 0 0 1 0 0 0 1 0"/>
<feBlend mode="normal" in2="BackgroundImageFix" result="effect1_dropShadow_1_141"/>
<feBlend mode="normal" in="SourceGraphic" in2="effect1_dropShadow_1_141" result="shape"/>
</filter>
</defs>
</svg>
